<svg xmlns="http://www.w3.org/2000/svg" width="288.001" height="172.1" viewBox="0 0 288.00059 172.1"><path d="M129.2 86.5c0-10.9 5.7-16.7 13.8-16.7 8.2 0 13.6 5.4 13.6 14.8 0 6.2-2.4 12.6-9 16.3l-18.3 9.5V86.5h-.1zm125.1 5.7c-11.1-3.4-18.5-4.9-18.5-13 0-6.4 4.7-10.1 13.5-10.1 9.6 0 18.3 2.8 26.3 6.9 1.4.7 2.8.1 3-1.3l2.7-26.1c.1-1.3-.4-2.4-1.7-2.9-9-3.6-19.7-6.1-32.5-6.1-30.5 0-46.5 15.5-46.5 39.9 0 21.9 13 32 38.4 38.9 10.3 3.2 14 5.7 14 12.8 0 6.9-4.4 11.1-13.8 11.1-12.3 0-25.4-5.7-36.3-12.1-1.9-1.1-3.3-.2-3.3 1.6v27.4c0 1.8.5 3 2.5 4.1 8.8 4.9 22.2 8.8 38.9 8.8 28.5 0 47-14.9 47-41.6.1-23.2-12.7-31.9-33.7-38.3m-67.7 37.9c-8.2 5.1-19.3 10.3-33.7 10.3-4.5 0-9.7-.9-12.3-2.4l24.9-12.7c15-8.2 24.4-19.3 24.4-39.5v-6c-.3-21.9-18.5-40.1-46.3-40.1-31.5 0-50.7 18.9-50.7 49.7v33c0 13.9 5.1 25 11.9 32.5 9.9 10.9 25.2 17.2 43.5 17.2 17.9 0 30.7-3.3 39.6-8.8 1.2-.8 2.3-1.9 2.2-4.1v-27.4c-.2-1.9-1.8-2.8-3.5-1.7zm-90.7 27.7c-5-6.7-8.5-13.7-10.5-22.6-.3-1.4-1.8-2.1-3.1-1.4-8.6 4.5-13.8 5.8-18.8 4.5-5-1.3-8-6.3-8-15.3V71.2h22.4c1.1 0 1.9-.9 1.9-1.9V43c0-1.1-.9-1.9-1.9-1.9H55.5V2c0-1.1-.9-2-1.9-2H20.8c-1.1 0-1.9.8-1.9 2v39.1h-17C.8 41.1 0 42 0 43v26.2c0 1.1.9 1.9 1.9 1.9h17v61.2c0 30.4 17.5 39.6 36.5 39.6 15.9 0 29.1-4.3 39.9-10.9 1-.6 1.3-2.2.6-3.2z" fill="#fff"/></svg>