<svg width="170" height="169" viewBox="0 0 170 169" xmlns="http://www.w3.org/2000/svg"><title>connect-v1-marker</title><g fill="none" fill-rule="evenodd"><path fill="#D0DF00" fill-rule="nonzero" d="M61.1 2.1v.2h.2z"/><path d="M97.3 64.7v41.7l36.1-20.9z"/><path d="M61.1 43.8L25 64.7l36.1 20.8 36.2-20.8-36.2-20.9zm0 41.7L25 106.4l36.1 20.8V85.5z"/><path d="M27 146.9c9.6 8.7 21.2 15.2 34.1 18.8v-38.5L27 146.9z" fill="#5161C9" fill-rule="nonzero"/><path d="M84.6 168.9h12.7v-20.8L65 166.7c6.2 1.4 12.8 2.2 19.6 2.2z" fill="#EF426F" fill-rule="nonzero"/><path fill="#5161C9" fill-rule="nonzero" d="M97.3 148.1v20.8h36.1z"/><path d="M61.1 165.7c1.3.4 2.5.7 3.8 1l32.3-18.6-36.1-20.9v38.5z" fill="#0092C8" fill-rule="nonzero"/><path d="M61.1 127.2L25 106.4V145c.7.6 1.3 1.3 2 1.9l34.1-19.7z" fill="#00C7B1" fill-rule="nonzero"/><path d="M0 91.9c.8 8.9 2.9 17.5 6.2 25.3L25 106.4 0 91.9z" fill="#753BBD" fill-rule="nonzero"/><path fill="#D0DF00" fill-rule="nonzero" d="M97.3 106.4l-36.2 20.8 36.2 20.9z"/><path fill="#00C7B1" fill-rule="nonzero" d="M133.4 127.2l-36.1 20.9 36.1 20.8z"/><path fill="#753BBD" fill-rule="nonzero" d="M133.4 168.9h36.1v-20.8z"/><path fill="#0092C8" fill-rule="nonzero" d="M133.4 127.2v41.7l36.1-20.8z"/><path fill="#5161C9" fill-rule="nonzero" d="M97.3 106.4v41.7l36.1-20.9z"/><path fill="#EF426F" fill-rule="nonzero" d="M97.3 106.4L61.1 85.5v41.7z"/><path fill="#D0DF00" fill-rule="nonzero" d="M61.1 85.5L25 64.7v41.7z"/><path d="M25 23C16.4 31.4 9.6 41.7 5.2 53.2L25 64.7V23zm36.1 62.5l36.2 20.9V64.7L61.1 85.5z" fill="#0092C8" fill-rule="nonzero"/><path fill="#753BBD" fill-rule="nonzero" d="M97.3 106.4l36.1 20.8V85.5z"/><path fill="#5161C9" fill-rule="nonzero" d="M133.4 127.2l36.1 20.9v-41.7z"/><path fill="#EF426F" fill-rule="nonzero" d="M133.4 85.5v41.7l36.1-20.8z"/><path fill="#753BBD" fill-rule="nonzero" d="M61.1 43.8L25 23v41.7z"/><path fill="#EF426F" fill-rule="nonzero" d="M97.3 64.7V23L61.1 43.8z"/><path fill="#5161C9" fill-rule="nonzero" d="M133.4 43.8L97.3 64.7l36.1 20.8z"/><path d="M133.4 85.5l36.1 20.9V84c0-6.3-.7-12.4-1.9-18.2l-34.2 19.7z" fill="#753BBD" fill-rule="nonzero"/><path d="M133.4 85.5l34.2-19.7c-.2-.8-.4-1.7-.6-2.5l-33.6-19.4v41.6z" fill="#0092C8" fill-rule="nonzero"/><path d="M97.3 64.7l36.1-20.9L97.3 23v41.7zm0-41.7l-36-20.8h-.2v41.6L97.3 23z" fill="#D0DF00" fill-rule="nonzero"/><path d="M167 63.2c-2.7-11.3-7.7-21.6-14.4-30.5l-19.3 11.1L167 63.2z" fill="#5161C9" fill-rule="nonzero"/><path d="M133.4 14.1v29.7l19.3-11.1c-5.4-7.2-11.9-13.4-19.3-18.6z" fill="#00C7B1" fill-rule="nonzero"/><path d="M123.1 8.1c-7.9-4-16.6-6.7-25.8-8.1v23l25.8-14.9z" fill="#753BBD" fill-rule="nonzero"/></g></svg>